<svg width="65" height="65" viewBox="0 0 65 65" fill="none" xmlns="http://www.w3.org/2000/svg">
<path d="M56.9509 41.0312C58.8802 35.5073 58.8802 29.4926 56.9509 23.9687L56.8747 23.7656C55.0722 18.7452 51.7635 14.4039 47.4007 11.3348C43.0379 8.26573 37.8339 6.61865 32.4997 6.61865C27.1656 6.61865 21.9615 8.26573 17.5987 11.3348C13.2359 14.4039 9.92722 18.7452 8.12472 23.7656L8.04855 23.9687C6.11923 29.4926 6.11923 35.5073 8.04855 41.0312L8.12472 41.2344C9.9246 46.2557 13.2311 50.5988 17.5922 53.6701C21.9534 56.7415 27.1566 58.3912 32.4908 58.394C37.8249 58.3968 43.0299 56.7524 47.3942 53.6856C51.7586 50.6188 55.0696 46.2792 56.8747 41.2597L56.9509 41.0312ZM25.3142 42.1484H39.6853C38.238 46.7949 35.7751 50.959 32.4997 54.1582C29.2243 50.959 26.7614 46.7949 25.3142 42.1484ZM24.5525 39.1015C23.6381 34.748 23.6381 30.252 24.5525 25.8984H40.447C41.3613 30.252 41.3613 34.748 40.447 39.1015H24.5525ZM9.64816 32.5C9.64287 30.264 9.96799 28.0394 10.613 25.8984H21.4294C20.6167 30.2619 20.6167 34.738 21.4294 39.1015H10.613C9.96799 36.9606 9.64287 34.736 9.64816 32.5V32.5ZM39.6853 22.8515H25.3142C26.7614 18.2051 29.2243 14.041 32.4997 10.8418C35.7751 14.041 38.238 18.2051 39.6853 22.8515ZM43.5954 25.8984H54.3864C55.6736 30.2053 55.6736 34.7946 54.3864 39.1015H43.5954C44.3741 34.7349 44.3741 30.265 43.5954 25.8984V25.8984ZM53.2185 22.8515H42.8845C41.5826 18.0348 39.1546 13.5964 35.8005 9.90233C39.549 10.4499 43.1028 11.9197 46.1429 14.1798C49.183 16.44 51.6143 19.4197 53.2185 22.8515V22.8515ZM29.1989 9.90233C25.8449 13.5964 23.4168 18.0348 22.115 22.8515H11.781C13.3851 19.4197 15.8164 16.44 18.8566 14.1798C21.8967 11.9197 25.4505 10.4499 29.1989 9.90233V9.90233ZM11.781 42.1484H22.115C23.4221 46.9706 25.8493 51.416 29.1989 55.123C25.4509 54.5643 21.8993 53.0873 18.8603 50.8235C15.8213 48.5598 13.3893 45.5796 11.781 42.1484V42.1484ZM35.8005 55.123C39.1501 51.416 41.5773 46.9706 42.8845 42.1484H53.2185C51.6101 45.5796 49.1782 48.5598 46.1392 50.8235C43.1002 53.0873 39.5485 54.5643 35.8005 55.123V55.123Z" fill="white"/>
</svg>
