<svg width="43" height="43" viewBox="0 0 43 43" fill="none" xmlns="http://www.w3.org/2000/svg">
<g clip-path="url(#clip0_71_26)">
<path d="M15.2775 13.1944C16.9878 13.5942 18.6983 12.532 19.0982 10.8217C19.4981 9.11148 18.4358 7.40089 16.7256 7.00102C15.0153 6.60114 13.3047 7.66341 12.9049 9.37365C12.505 11.0839 13.5673 12.7945 15.2775 13.1944Z" fill="black"/>
<path d="M30.1408 16.6697C31.851 17.0696 33.5616 16.0073 33.9615 14.2971C34.3614 12.5868 33.2991 10.8762 31.5889 10.4764C29.8786 10.0765 28.168 11.1387 27.7681 12.849C27.3683 14.5592 28.4305 16.2698 30.1408 16.6697Z" fill="black"/>
<path d="M18.6309 32.0705C20.3411 32.4704 22.0516 31.4082 22.4514 29.698C22.8513 27.9879 21.7891 26.2774 20.0789 25.8776C18.3688 25.4777 16.6583 26.5399 16.2584 28.2501C15.8586 29.9602 16.9208 31.6707 18.6309 32.0705Z" fill="black"/>
</g>
<defs>
<clipPath id="clip0_71_26">
<rect width="35.2272" height="35.2272" fill="white" transform="translate(8.01953 -0.00012207) rotate(13.16)"/>
</clipPath>
</defs>
</svg>
