<svg width="36" height="36" viewBox="0 0 36 36" fill="none" xmlns="http://www.w3.org/2000/svg">
<path d="M28.089 22C20.2134 22 15.7978 22 7.92224 22C8.7216 25.4101 11.9025 26.9821 11.9025 26.9821C11.9025 26.9821 14.7496 29.1644 18.0056 28.8606C20.8964 29.4906 24.1087 26.9821 24.1087 26.9821C24.1087 26.9821 27.624 24.8946 28.089 22Z" fill="black"/>
<path d="M28.089 22C27.2946 24.022 25.9074 25.7582 24.1087 26.9821C22.3099 28.2059 20.1831 28.8606 18.0056 28.8606C15.8282 28.8606 13.7013 28.2059 11.9025 26.9821C10.1038 25.7582 8.71668 24.022 7.92224 22C8.31169 22.046 5.5354 21.8264 6.06819 23.0821C7.05476 25.4281 8.71419 27.4312 10.8382 28.8398C12.9621 30.2485 15.456 31 18.0067 31C20.5574 31 23.0513 30.2485 25.1752 28.8398C27.2992 27.4312 28.9586 25.4281 29.9452 23.0821C30.4758 21.8264 26.9507 22.0243 28.089 22Z" fill="black"/>
<path d="M10.6177 11.743C12.3741 11.743 13.7979 10.3191 13.7979 8.56276C13.7979 6.80639 12.3741 5.38257 10.6177 5.38257C8.86132 5.38257 7.4375 6.80639 7.4375 8.56276C7.4375 10.3191 8.86132 11.743 10.6177 11.743Z" fill="black"/>
<path d="M25.8814 11.7431C27.6377 11.7431 29.0616 10.3193 29.0616 8.56289C29.0616 6.80651 27.6377 5.38269 25.8814 5.38269C24.125 5.38269 22.7012 6.80651 22.7012 8.56289C22.7012 10.3193 24.125 11.7431 25.8814 11.7431Z" fill="black"/>
</svg>
