<svg width="43" height="43" viewBox="0 0 43 43" fill="none" xmlns="http://www.w3.org/2000/svg">
<g clip-path="url(#clip0_46_15)">
<path d="M32.3182 26.2788C30.8556 28.4024 28.7868 30.0358 26.3817 30.9658C23.9767 31.8959 21.3472 32.0793 18.8363 31.4923C16.3255 30.9053 14.0499 29.575 12.3065 27.6751C10.5631 25.7752 9.43286 23.3939 9.06332 20.842C8.78818 19.2361 6.35789 19.9978 6.63287 21.5932C7.13638 24.5715 8.50848 27.3348 10.5769 29.536C12.6454 31.7373 15.318 33.2785 18.2593 33.9661C21.2006 34.6538 24.2795 34.4573 27.1094 33.4012C29.9394 32.3452 32.3944 30.4767 34.1662 28.0303C35.1175 26.7216 33.2822 24.9496 32.3182 26.2788Z" fill="black"/>
<path d="M15.2776 13.1943C16.9879 13.5942 18.6985 12.5319 19.0983 10.8216C19.4981 9.11138 18.4359 7.40081 16.7256 7.00096C15.0153 6.60112 13.3048 7.66341 12.9049 9.37367C12.5051 11.0839 13.5674 12.7945 15.2776 13.1943Z" fill="black"/>
<path d="M30.1409 16.6694C31.8512 17.0693 33.5617 16.007 33.9616 14.2967C34.3614 12.5865 33.2991 10.8759 31.5889 10.4761C29.8786 10.0762 28.168 11.1385 27.7682 12.8488C27.3684 14.559 28.4307 16.2696 30.1409 16.6694Z" fill="black"/>
</g>
<defs>
<clipPath id="clip0_46_15">
<rect width="35.2272" height="35.2272" fill="white" transform="translate(8.01953) rotate(13.159)"/>
</clipPath>
</defs>
</svg>
