<svg width="40" height="35" viewBox="0 0 40 35" fill="none" xmlns="http://www.w3.org/2000/svg">
<path d="M28.5593 8.00001L20.9327 0.400014C20.6837 0.148989 20.3452 0.00712748 19.9917 0.00562725C19.6381 0.00412703 19.2984 0.143111 19.0473 0.392014L19.0393 0.400014L11.4393 8.00001H3.99935C3.64573 8.00001 3.30659 8.14049 3.05654 8.39054C2.80649 8.64059 2.66602 8.97972 2.66602 9.33335V33.3333C2.66602 33.687 2.80649 34.0261 3.05654 34.2762C3.30659 34.5262 3.64573 34.6667 3.99935 34.6667H35.9993C36.353 34.6667 36.6921 34.5262 36.9422 34.2762C37.1922 34.0261 37.3327 33.687 37.3327 33.3333V9.33335C37.3327 8.97972 37.1922 8.64059 36.9422 8.39054C36.6921 8.14049 36.353 8.00001 35.9993 8.00001H28.5593ZM19.9993 3.22668L24.7727 8.00001H15.226L19.9993 3.22668ZM34.666 32H5.33268V10.6667H34.666V32ZM13.3327 18.6667C12.6254 18.6667 11.9472 18.3857 11.4471 17.8856C10.947 17.3855 10.666 16.7073 10.666 16C10.666 15.2928 10.947 14.6145 11.4471 14.1144C11.9472 13.6143 12.6254 13.3333 13.3327 13.3333C14.0399 13.3333 14.7182 13.6143 15.2183 14.1144C15.7184 14.6145 15.9993 15.2928 15.9993 16C15.9993 16.7073 15.7184 17.3855 15.2183 17.8856C14.7182 18.3857 14.0399 18.6667 13.3327 18.6667ZM31.9993 29.3333H11.9993L15.9993 21.3333L19.3327 28L25.3327 16L31.9993 29.3333Z" fill="black"/>
</svg>
