<svg width="104" height="102" viewBox="0 0 104 102" fill="none" xmlns="http://www.w3.org/2000/svg">
<g filter="url(#filter0_d_48_22)">
<path d="M70.6436 88.3972C70.8023 96.2865 60.6529 99.617 56.1065 93.1675L48.0957 81.8036C45.6757 78.3706 41.013 77.3937 37.4185 79.5665L25.5199 86.7592C18.767 90.8413 10.808 83.7169 14.1202 76.5549L19.9563 63.9354C21.7193 60.1231 20.2339 55.5966 16.555 53.5701L4.37664 46.8619C-2.53504 43.0548 -0.344611 32.5999 7.51402 31.8873L21.3608 30.6318C25.5439 30.2525 28.7213 26.7028 28.6368 22.5035L28.3571 8.60269C28.1983 0.713414 38.3477 -2.61703 42.8941 3.83244L50.9049 15.1964C53.3249 18.6293 57.9876 19.6062 61.5821 17.4334L73.4807 10.2407C80.2337 6.15862 88.1926 13.283 84.8804 20.4451L79.0444 33.0646C77.2813 36.8768 78.7667 41.4033 82.4457 43.4298L94.624 50.138C101.536 53.9452 99.3452 64.4 91.4866 65.1126L77.6398 66.3682C73.4568 66.7475 70.2794 70.2971 70.3639 74.4964L70.6436 88.3972Z" fill="#5ED154"/>
</g>
<defs>
<filter id="filter0_d_48_22" x="0.228516" y="0.425171" width="103.543" height="101.15" filterUnits="userSpaceOnUse" color-interpolation-filters="sRGB">
<feFlood flood-opacity="0" result="BackgroundImageFix"/>
<feColorMatrix in="SourceAlpha" type="matrix" values="0 0 0 0 0 0 0 0 0 0 0 0 0 0 0 0 0 0 127 0" result="hardAlpha"/>
<feOffset dx="5" dy="5"/>
<feComposite in2="hardAlpha" operator="out"/>
<feColorMatrix type="matrix" values="0 0 0 0 0.0923246 0 0 0 0 0.416667 0 0 0 0 0.0625 0 0 0 1 0"/>
<feBlend mode="normal" in2="BackgroundImageFix" result="effect1_dropShadow_48_22"/>
<feBlend mode="normal" in="SourceGraphic" in2="effect1_dropShadow_48_22" result="shape"/>
</filter>
</defs>
</svg>
